# xmcd CD database file
#
# Track frame offsets:
#	150
#	24667
#	37039
#	50877
#	84210
#	97089
#	120348
#	135039
#	166928
#	181545
#	196058
#	210247
#	242124
#	266750
#	293500
#	312710
#
# Disc length: 4565 seconds
#
# Revision: 0
# Processed by: cddbd v1.5.2PL0 Copyright (c) Steve Scherf et al.
# Submitted via: CDex 2.06
#
DISCID=d111d310
DTITLE=Giants of Jazz - CD2 - Playing it cool - Unknown CD for MusicBrainz and FreeDB
DYEAR=2012
DGENRE=Jazz
TTITLE0=Dave Brubeck - Take five
TTITLE1=The Stan Getz quintet - Stella by starlight
TTITLE2=Chet Baker - September song
TTITLE3=Wes Montgomery - West coast blues
TTITLE4=Ahmad Jamal - The surrey with the fringe on top
TTITLE5=Lester Young - Taking a chance on love
TTITLE6=Bill Evans - Peri's scope
TTITLE7=The modern Jazz Quartet - Django
TTITLE8=Oscar Peterson - It ain't necessarily so
TTITLE9=Ben Webster - in the wee small hours
TTITLE10=Gerry Mulligan and Paul Desmond - Line for lyons
TTITLE11=Horace Silver - Senor blues
TTITLE12=Art Pepper You'd be so nice to come home to
TTITLE13=Blue Mitchell - I'll close my eyes
TTITLE14=The jazztet - Killer Joe
TTITLE15=Ornette Coleman - Ramblin'
EXTD=YEAR: 2012
EXTT0=
EXTT1=
EXTT2=
EXTT3=
EXTT4=
EXTT5=
EXTT6=
EXTT7=
EXTT8=
EXTT9=
EXTT10=
EXTT11=
EXTT12=
EXTT13=
EXTT14=
EXTT15=
PLAYORDER=
